<svg xmlns="http://www.w3.org/2000/svg" xmlns:xlink="http://www.w3.org/1999/xlink" width="99" height="26" viewBox="0 0 99 26">
    <defs>
        <path id="prefix__a" d="M0 0H98.637V26H0z"/>
    </defs>
    <g fill="none" fill-rule="evenodd">
        <mask id="prefix__b" fill="#fff">
            <use xlink:href="#prefix__a"/>
        </mask>
        <g fill="#F2F1EA" mask="url(#prefix__b)">
            <path d="M91.798 20.454L93.32 20.454 91.775 25.492 89.682 25.492 88.564 22.31 87.589 25.492 86.098 25.492 87.643 20.454 89.863 20.454 90.883 23.437 91.798 20.454M60.99 25.558c1.755 0 2.9-.873 3.436-2.618l.762-2.486h-1.492l-.782 2.552c-.298.972-.827 1.458-1.588 1.458-.783 0-1.025-.486-.727-1.458l.782-2.552h-1.49l-.762 2.486c-.536 1.745.085 2.618 1.861 2.618M50.616 21.945h1.713c.437-1.149-.349-1.723-2.358-1.723-1.776 0-2.833.552-3.172 1.657-.237.774-.048 1.26.568 1.458.17.067.773.133 1.81.2.663.044.94.243.832.596-.095.31-.502.464-1.22.464-.466 0-.751-.033-.858-.1-.199-.11-.22-.353-.062-.729h-1.776c-.45 1.26.298 1.89 2.244 1.89 2.008 0 3.202-.62 3.582-1.856.216-.707.02-1.171-.588-1.393-.284-.11-.89-.198-1.823-.265-.662-.044-.96-.177-.892-.398.095-.309.491-.463 1.189-.463.401 0 .638.022.709.066.234.066.267.265.102.596M68.446 21.515L67.227 25.492 65.736 25.492 66.956 21.515 65.179 21.515 65.505 20.454 70.548 20.454 70.222 21.515 68.446 21.515M70.865 20.454L72.388 20.454 71.788 22.409 74.071 22.409 74.671 20.454 76.162 20.454 74.617 25.492 73.126 25.492 73.736 23.503 71.452 23.503 70.842 25.492 69.321 25.492 70.865 20.454M78.004 22.409L80.415 22.409 80.079 23.503 77.668 23.503 77.394 24.398 80.09 24.398 79.755 25.492 75.568 25.492 77.113 20.454 81.3 20.454 80.975 21.515 78.278 21.515 78.004 22.409M54.341 23.04c-.318 1.038-.044 1.557.823 1.557.845 0 1.43-.53 1.756-1.59.332-1.084.075-1.625-.77-1.625-.868 0-1.47.553-1.809 1.657zm2.112-2.752c1.966 0 2.679.884 2.136 2.652-.555 1.812-1.816 2.718-3.783 2.718-1.966 0-2.675-.895-2.126-2.685.549-1.79 1.806-2.685 3.773-2.685zM82.523 23.603l-.58 1.889h-1.49l1.544-5.038 3.182-.033c1.184 0 1.634.464 1.35 1.392-.19.619-.576 1.016-1.159 1.193.373.022.512.365.414 1.028-.151.906-.215 1.391-.193 1.458h-1.586c-.106 0-.095-.31.03-.928.155-.641.01-.961-.434-.961h-1.078zm1.509-1.094c.359 0 .59-.166.691-.497.102-.332-.027-.497-.387-.497h-1.173l-.305.994h1.174zM7.63 20.355L9.152 20.355 7.597 25.426 5.535 25.426 4.428 22.211 3.442 25.426 1.92 25.426 3.475 20.355 5.695 20.355 6.715 23.338 7.63 20.355M26.247 20.355L25.912 21.448 23.216 21.448 22.921 22.41 25.395 22.41 25.06 23.504 22.586 23.504 21.996 25.426 20.474 25.426 22.029 20.355 26.247 20.355M32.939 20.355L34.462 20.355 33.243 24.332 35.875 24.332 35.539 25.426 31.385 25.426 32.939 20.355M37.348 20.355L38.87 20.355 38.169 22.642 40.964 20.355 42.93 20.355 40.136 22.642 41.566 25.426 39.567 25.426 38.159 22.675 37.315 25.426 35.794 25.426 37.348 20.355M10.633 22.973c-.325 1.06-.055 1.591.813 1.591.845 0 1.434-.541 1.766-1.624.325-1.06.065-1.591-.78-1.591-.868 0-1.467.541-1.799 1.624zm2.112-2.751c1.967 0 2.675.895 2.127 2.685-.55 1.79-1.807 2.684-3.773 2.684-1.967 0-2.68-.883-2.137-2.651.555-1.812 1.817-2.718 3.783-2.718zM16.814 23.504l-.59 1.922h-1.49l1.554-5.071h3.172c1.206 0 1.666.463 1.381 1.391-.182.597-.576.984-1.18 1.16.367.045.505.387.414 1.029-.13.905-.186 1.402-.172 1.491h-1.617c-.106 0-.082-.32.073-.961.154-.641-.002-.961-.467-.961h-1.078zm1.54-1.094c.339 0 .559-.166.66-.497.095-.31-.037-.465-.396-.465h-1.174l-.295.962h1.205zM27.38 22.973c-.326 1.06-.065 1.591.78 1.591.867 0 1.466-.541 1.798-1.624.326-1.06.055-1.591-.812-1.591-.846 0-1.434.541-1.767 1.624zm2.112-2.751c1.945 0 2.643.895 2.094 2.685-.549 1.79-1.795 2.684-3.74 2.684-1.967 0-2.68-.883-2.138-2.651.556-1.812 1.817-2.718 3.784-2.718zM33.625 3.818H9.437l-.862 2.524h20.01c1.088-.346 4.308-1.286 7.34-1.336 0 0-1.805-.512-3.598-.792 0 0 .504-.172 1.298-.396M5.692 14.777L4.828 17.302 19.668 17.302 25.096 15.144 23.612 14.777 5.692 14.777M49.025 1.114c.131-.09.724-.605 1.155-1.014h-1.613c.023.38.057.899.078 1.05.035.245.172.104.38-.036M6.944 11.114l-.863 2.524h17.56c1.204-.548 2.687-1.221 3.004-1.36.604-.266 2.546-.8 2.546-.8s-.367-.166-.895-.364H6.944M44.732.677c1.655.421 2.12.577 2.12.577S47.47.914 48.191.1H10.708l-.863 2.525h28.394c-.725-.183-1.75-.488-2.255-.851 0 0 2.689-.424 4.378-.366 1.8.06 3.718.366 3.718.366S43.094.764 41.853.518c0 0 1.173-.274 2.879.16M7.328 9.99h18.985c1.233-.64 3.73-1.801 6.869-2.525H8.19l-.863 2.526M87.653 11.863c.928.338.41 1.133.41 1.133-.367.533-.981.642-.981.642-.497.044-2.308.307-3.562-.043-1.251-.349-1.1-.916-1.1-.916-.043-.414.087-.653.087-.653l-7.693-.328 1.171-3.427c1.05 3.012 6.759 3.123 6.759 3.123 3.151.174 4.909.469 4.909.469zm1.76-5.634l8.328.307c1.339-1.875.432-3.313.432-3.313-.518-1.264-2.935-2.092-2.935-2.092C89.714-.48 83.435.413 83.435.413c-3.259.327-4.894 1.496-5.438 1.972l.766-2.24h-7.316l-2.915 8.536L64.369.108h-.313l.001-.003L50.569.1c-.116.632-.384 1.715-.924 2.312l-.034.175c.896.631 2.172 2.385 2.31 2.595.138.21.483.246.69.561.206.316-.035.561.172.877.207.316 2.861 4.454 4.586 6.208.586.596.448.596.413.806-.034.21-.344.28-.516.632-.173.35.034.876-.207 1.157-.242.28-.724.456-1.035.49-.448.387-1.586.562-1.93.317 0 0-.45-.176-.553-1.158-1.24-.21-3.792-1.648-4.379-2.174-.69.105-1.965-.456-2.103-.526-.138-.07-.172-.246-.552-.035-.379.21-.482.35-.551.63l-1.506 4.335 13.738-.027 2.888-8.448 4.22 8.471.292-.001-.01.03 7.316-.012.902-2.64c1.476 2.844 3.995 2.902 3.995 2.902.335.234 4.846.463 6.486.55 1.64.088 5.912-.284 5.912-.284 5.805-.48 6.431-5.795 6.431-5.795.777-3.464-3.496-4.619-3.496-4.619-.863-.328-7.1-1.024-7.1-1.024-2.007-.088-1.337-1.155-1.337-1.155.087-.871 2.438-.698 2.438-.698 2.503-.066 2.546.501 2.546.501.173.785-.258 1.176-.258 1.176zM95.645 19.243h.155c.177 0 .326-.066.326-.234 0-.12-.085-.24-.326-.24-.07 0-.117.006-.155.012v.462zm0 .756h-.214v-1.365c.113-.017.22-.033.38-.033.203 0 .337.044.417.104.08.06.123.152.123.282 0 .18-.118.288-.262.332v.01c.118.022.198.131.224.332.033.213.065.294.086.338h-.224c-.033-.044-.065-.169-.091-.348-.032-.174-.118-.24-.29-.24h-.149V20zm.225-1.746c-.53 0-.962.462-.962 1.033 0 .582.432 1.039.967 1.039.535.005.962-.457.962-1.033 0-.577-.427-1.039-.962-1.039h-.005zm.005-.19c.658 0 1.182.543 1.182 1.223 0 .69-.524 1.23-1.187 1.23-.658 0-1.192-.54-1.192-1.23 0-.68.534-1.223 1.192-1.223h.005z"/>
        </g>
    </g>
</svg>
